<svg xmlns="http://www.w3.org/2000/svg" viewBox="0 0 1686 563.35">
    <defs>
        <style>
            .emission {
                fill: #bf5700;
                /* stroke: #fff; */
                /* stroke-width: 1; */
            }
            .excitation{
                fill: #006086;
                /* stroke: #fff;
                stroke-width: 1; */
            }
            .initials{fill:#fff}
        </style>
    </defs>
    <path d="M16 468.2v-360h232v29H50v130h180v29H50v172zm668.5 0v-360h34v360z" class="initials" />
    <path class="initials" d="M811.5 468.2v-360h34v331h193v29z" />
    <path class="emission"
        d="M620.3 196.3c-11.3 9.3-22.9 18.1-34.5 26.9l-8.8 6.5-8.8 6.5-8.8 6.3-8.9 6.3c-5.9 4.1-11.5 8.9-17.3 13.3a84.2 84.2 0 01-18.7 11 137 137 0 01-20.9 7c-3.7.9-7.4 1.6-11.3 2.2a73.5 73.5 0 01-12.1.8l-1.5-2.6a73.1 73.1 0 016.7-10.1c2.4-3.1 4.9-5.9 7.5-8.7a136 136 0 0116.6-14.7 83.8 83.8 0 0118.8-10.7c6.7-2.8 13.6-5.3 20.2-8.4l9.8-4.6 9.9-4.5 10-4.4 10-4.3c13.4-5.6 26.8-11.3 40.5-16.5z" />
    <path class="emission"
        d="M471.1 108.2c2.4 14.5 4.2 28.9 6 43.4l1.3 10.8 1.2 10.8 1.1 10.8 1 10.8c.6 7.2 1.9 14.4 2.9 21.7a84.1 84.1 0 01.1 21.7 137.7 137.7 0 01-4.5 21.8c-1.1 3.6-2.3 7.2-3.8 10.8a73 73 0 01-5.3 10.8h-3a74.1 74.1 0 01-5.4-10.8c-1.5-3.6-2.7-7.2-3.8-10.8a135.5 135.5 0 01-4.4-21.7 84.1 84.1 0 01.1-21.7c1-7.2 2.3-14.5 2.9-21.7l1-10.8 1.1-10.8 1.2-10.8 1.3-10.8c1.8-14.4 3.6-28.9 6-43.4z" />
    <path class="emission"
        d="M320.4 193.7c13.7 5.2 27.1 10.8 40.5 16.5l10 4.3 10 4.4 9.9 4.5 9.9 4.6c6.5 3.1 13.4 5.6 20.2 8.4a84 84 0 0118.7 10.6 136 136 0 0116.6 14.6c2.6 2.7 5.1 5.6 7.5 8.7a75 75 0 016.7 10.1l-1.5 2.6a73.7 73.7 0 01-12.1-.8c-3.9-.5-7.6-1.3-11.3-2.2a137 137 0 01-20.9-7 84.1 84.1 0 01-18.7-11c-5.8-4.5-11.4-9.2-17.3-13.3l-8.9-6.3-8.8-6.3-8.8-6.5-8.7-6.5c-11.6-8.8-23.2-17.6-34.5-26.9z" />
    <path class="emission"
        d="M318.9 367.1c11.3-9.3 22.9-18.1 34.5-26.9l8.7-6.5 8.8-6.5 8.8-6.3 8.9-6.3c6-4.1 11.6-8.9 17.3-13.3a84.1 84.1 0 0118.7-11 135.9 135.9 0 0120.9-7c3.7-.9 7.4-1.6 11.3-2.2a74.8 74.8 0 0112.1-.8l1.5 2.6a74.5 74.5 0 01-6.8 10.1c-2.4 3.1-4.9 5.9-7.5 8.7a136.9 136.9 0 01-16.6 14.6 84 84 0 01-18.8 10.7c-6.7 2.8-13.6 5.3-20.2 8.4l-9.8 4.6-9.9 4.5-10 4.4-10 4.3c-13.4 5.6-26.8 11.3-40.5 16.5z" />
    <path class="emission"
        d="M468.1 455.1c-2.4-14.4-4.2-28.9-6-43.4l-1.3-10.8-1.2-10.8-1.1-10.8-1-10.8c-.6-7.2-1.9-14.5-2.9-21.7a84.1 84.1 0 01-.1-21.7 135.6 135.6 0 014.5-21.7c1.1-3.6 2.3-7.2 3.8-10.8a75.1 75.1 0 015.4-10.8h3a74 74 0 015.3 10.8c1.5 3.6 2.7 7.2 3.8 10.8a137.9 137.9 0 014.3 21.6 84.1 84.1 0 01-.1 21.7c-1 7.2-2.3 14.4-2.9 21.7l-1 10.8-1.1 10.8-1.2 10.8-1.3 10.8c-1.8 14.5-3.6 28.9-6 43.4z" />
    <path class="emission"
        d="M618.7 369.7c-13.7-5.2-27.1-10.9-40.5-16.5l-10-4.3-10-4.4-9.9-4.5-9.8-4.6c-6.5-3.1-13.4-5.6-20.2-8.4a83.8 83.8 0 01-18.8-10.7 136.8 136.8 0 01-16.5-14.6c-2.6-2.8-5.1-5.6-7.5-8.7a72.6 72.6 0 01-6.7-10l1.5-2.6a74.5 74.5 0 0112.1.8c3.9.5 7.6 1.3 11.3 2.2a135.9 135.9 0 0120.9 7 84.2 84.2 0 0118.7 11c5.8 4.4 11.4 9.2 17.3 13.3l8.9 6.3 8.8 6.3 8.8 6.5 8.7 6.5c11.6 8.8 23.2 17.6 34.5 26.9z" />
    <path class="emission"
        d="M535.7 169.8c-.8 2.6-1.7 5.3-2.6 7.9l-2.7 7.8c-1.8 5.2-3.8 10.3-5.7 15.5l-2.9 7.7-3 7.6-3.1 7.6-3.2 7.5c-1.1 2.5-2 5.1-2.9 7.7l-2.7 7.8a50.4 50.4 0 01-3.4 7.4 48.2 48.2 0 01-4.6 6.7 80.1 80.1 0 01-11.9 11.9 76 76 0 01-7.3 5.2 51.1 51.1 0 01-8.7 4.4l-2.6-1.5a52 52 0 01-.6-9.7 75 75 0 01.8-8.9 79.4 79.4 0 014.3-16.3 48.1 48.1 0 013.5-7.3 50.9 50.9 0 014.6-6.8l5.4-6.3c1.8-2.1 3.5-4.2 5.2-6.4l4.9-6.6 5-6.5 5.1-6.4 5.2-6.4c3.5-4.2 7-8.5 10.5-12.7l5.4-6.3c1.8-2.1 3.6-4.2 5.5-6.2z" />
    <path class="emission"
        d="M406 168.3c1.9 2 3.7 4.1 5.5 6.2l5.4 6.3c3.6 4.2 7 8.4 10.5 12.7l5.2 6.4 5.1 6.4 5 6.5 4.9 6.6c1.6 2.2 3.4 4.3 5.2 6.4s3.7 4.1 5.4 6.3a51.8 51.8 0 014.7 6.7 48.1 48.1 0 013.5 7.3 80.7 80.7 0 014.3 16.3 75.1 75.1 0 01.8 8.9 51.1 51.1 0 01-.6 9.7l-2.6 1.5a51.2 51.2 0 01-8.7-4.4 77.1 77.1 0 01-7.3-5.2 80.2 80.2 0 01-12-11.9 48.1 48.1 0 01-4.6-6.7 51.5 51.5 0 01-3.4-7.4l-2.7-7.8c-.9-2.6-1.9-5.2-3-7.7l-3.2-7.5-3.1-7.6-3-7.6-2.9-7.7c-1.9-5.1-3.9-10.3-5.7-15.5l-2.7-7.8c-.9-2.6-1.8-5.2-2.6-7.9z" />
    <path class="emission"
        d="M403.4 393.5c.8-2.6 1.7-5.2 2.6-7.9l2.7-7.8c1.8-5.2 3.8-10.3 5.7-15.5l2.9-7.7 3-7.6 3.1-7.6 3.2-7.5c1.1-2.5 2-5.1 3-7.7s1.7-5.2 2.7-7.8a52.5 52.5 0 013.4-7.4 47.5 47.5 0 014.6-6.7 80.2 80.2 0 0111.9-11.9 77.2 77.2 0 017.3-5.2 51.9 51.9 0 018.7-4.4l2.6 1.5a51.2 51.2 0 01.6 9.7 74.9 74.9 0 01-.8 8.9 81 81 0 01-4.3 16.3 48.1 48.1 0 01-3.5 7.3 52.4 52.4 0 01-4.7 6.6l-5.4 6.3c-1.8 2.1-3.5 4.2-5.2 6.4l-4.9 6.5-5 6.5-5.1 6.4-5.2 6.4c-3.5 4.2-7 8.5-10.5 12.7l-5.4 6.3c-1.8 2.1-3.6 4.2-5.5 6.2z" />
    <path class="emission"
        d="M533.1 395c-1.9-2-3.7-4.1-5.5-6.2l-5.4-6.3c-3.6-4.2-7.1-8.4-10.5-12.7l-5.2-6.4-5-6.4-5-6.5-4.9-6.5c-1.6-2.2-3.4-4.3-5.2-6.4s-3.7-4.1-5.4-6.3a51.5 51.5 0 01-4.7-6.6 48.1 48.1 0 01-3.5-7.3 79.7 79.7 0 01-4.3-16.3 74.8 74.8 0 01-.8-8.9 52.1 52.1 0 01.6-9.7l2.6-1.5a51.8 51.8 0 018.7 4.4 76.1 76.1 0 017.3 5.2 80.1 80.1 0 0111.9 11.9 47.5 47.5 0 014.6 6.7 51.3 51.3 0 013.4 7.4l2.7 7.8c.9 2.6 1.9 5.2 2.9 7.7l3.2 7.5 3.1 7.6 3 7.6 2.9 7.7c1.9 5.1 3.9 10.3 5.7 15.5l2.7 7.8c.9 2.6 1.8 5.2 2.6 7.9z" />
    <path class="emission"
        d="M599.3 283.2c-2.7.6-5.4 1.1-8.1 1.7l-8.1 1.5c-5.4 1-10.8 1.9-16.2 2.8l-8.1 1.3-8.1 1.2-8.1 1.1-8.1 1c-2.7.3-5.4.8-8.1 1.3s-5.4 1.1-8.1 1.6a50.5 50.5 0 01-8.1.8 47.3 47.3 0 01-8.1-.6 79.4 79.4 0 01-16.2-4.4 74.3 74.3 0 01-8.1-3.8 50.6 50.6 0 01-8.1-5.4v-3a50.6 50.6 0 018.1-5.3 76.4 76.4 0 018.1-3.8 80.7 80.7 0 0116.1-4.5 48.3 48.3 0 018.1-.6 51.7 51.7 0 018.1.8c2.7.5 5.4 1.1 8.1 1.6s5.4 1 8.1 1.3l8.1 1 8.1 1.1 8.1 1.2 8.1 1.3c5.4.9 10.8 1.8 16.2 2.8l8.1 1.5c2.7.6 5.4 1.1 8.1 1.7z" />
    <path class="excitation" d="M469.6 296.7l-239.6-15 239.6-15v30z" />
    <!-- bf5700 -->
    <ellipse cx="469.6" cy="281.7" rx="36" ry="36.1" stroke="#fff" stroke-width="6"/>
    <path stroke="#fff" stroke-miterlimit="10" stroke-width="5" d="M1119.18 41.88v479.59" />
    <path fill="#FFF"
        d="M1200.5 79.9h44.8v7.9h-36v19.6h31.7v7.7h-31.7v29.4h-8.7zM1312.7 97.4h7.5v6.7a21.1 21.1 0 017.1-5.9 18.9 18.9 0 018.3-1.8q10 0 13.5 7 1.9 3.8 1.9 10.9v30.2h-8v-29.7a16.2 16.2 0 00-1.3-7q-2.1-4.4-7.7-4.4a15.7 15.7 0 00-4.6.6 11.8 11.8 0 00-5.7 3.9 11.6 11.6 0 00-2.6 4.8 32.1 32.1 0 00-.6 7.1v24.6h-7.9zm85.6 2.5q5 3.9 6 13.3h-7.7a14.2 14.2 0 00-3.2-7.2q-2.5-2.9-8-2.9-7.6 0-10.8 7.4a29.2 29.2 0 00-2.1 11.8 22.2 22.2 0 003 11.9q3 4.8 9.4 4.8a10.3 10.3 0 007.8-3 16.4 16.4 0 004-8.2h7.7q-1.3 9.4-6.6 13.7t-13.5 4.3a18 18 0 01-14.7-6.7q-5.5-6.8-5.5-16.9 0-12.4 6-19.3a19.5 19.5 0 0115.3-6.9q7.9 0 12.9 3.9zm20-15.6h8v13.1h7.5v6.5h-7.5v30.7a3.3 3.3 0 001.7 3.3 7.2 7.2 0 003.1.5h1.2c.4 0 1-.1 1.5-.1v6.3a18.5 18.5 0 01-2.8.6 26.2 26.2 0 01-3.2.2c-3.7 0-6.2-1-7.5-2.8a12.6 12.6 0 01-2-7.4v-31.4h-6.4v-6.4h6.4zm27.9-4.4h8v9h-8zm0 17.7h8v46.9h-8zm58.6 4.5q6.2 6.1 6.2 17.8 0 11.4-5.5 18.8t-17.1 7.4q-9.7 0-15.3-6.6t-5.7-17.6q0-11.9 6-18.9t16.1-7a21.1 21.1 0 0115.3 6.1zm-4.9 31.3a29.9 29.9 0 002.9-13.2 23.8 23.8 0 00-2.1-10.7q-3.3-6.5-11.4-6.5-7.2 0-10.4 5.5a25.9 25.9 0 00-3.3 13.3 22.5 22.5 0 003.3 12.5q3.3 5 10.3 5 7.8 0 10.7-5.9zm25.4-36h7.5v6.7a21.1 21.1 0 017.1-5.9 18.9 18.9 0 018.3-1.8q10 0 13.5 7 1.9 3.8 1.9 10.9v30.2h-8v-29.7a16.1 16.1 0 00-1.3-7q-2.1-4.4-7.6-4.4a15.6 15.6 0 00-4.6.6 11.8 11.8 0 00-5.7 3.9 11.5 11.5 0 00-2.6 4.8 32.1 32.1 0 00-.6 7.1v24.6h-7.9zm79.8 18.6a4.3 4.3 0 003.6-2.3 7 7 0 00.5-3q0-4.1-2.9-5.9t-8.2-1.8q-6.2 0-8.8 3.4a11.1 11.1 0 00-1.9 5.5h-7.4q.2-8.7 5.6-12.1a23.1 23.1 0 0112.6-3.4q8.3 0 13.5 3.2t5.1 9.8v27.1a3.5 3.5 0 00.5 2 2.5 2.5 0 002.1.8 10.4 10.4 0 001.2-.1c.4 0 .9-.1 1.4-.2v5.8a22.9 22.9 0 01-2.8.7 20.4 20.4 0 01-2.6.1c-2.7 0-4.7-1-5.9-2.9a11.3 11.3 0 01-1.4-4.3 20 20 0 01-6.9 5.5 21.5 21.5 0 01-10 2.3 14.8 14.8 0 01-10.7-4 13.2 13.2 0 01-4.2-9.9q0-6.5 4.1-10.1a19.4 19.4 0 0110.7-4.4zm-16.6 21.4a9.3 9.3 0 005.9 2 18.2 18.2 0 008.1-1.9 10.9 10.9 0 006.5-10.6v-6.4a13.4 13.4 0 01-3.7 1.5 30.9 30.9 0 01-4.5.9l-4.8.6a18.7 18.7 0 00-6.5 1.8 7 7 0 00-3.7 6.6 6.5 6.5 0 002.6 5.4zm46.1-57.5h7.9v64.6h-7.9zm-381.7 117.2q6.4 8.6 6.4 21.9 0 14.5-7.3 24-8.6 11.3-24.6 11.3-14.9 0-23.4-9.8-7.6-9.5-7.6-24 0-13.1 6.5-22.4 8.3-12 24.7-11.9 17.1 0 25.3 10.9zm-7.7 41.1a35.3 35.3 0 005.2-19.1q0-11.4-6-18.3t-16.3-7a21.2 21.2 0 00-16.4 6.9q-6.3 6.9-6.3 20.3 0 10.7 5.4 18.1t17.6 7.4q11.6.1 16.8-8.2zm27.3-32.6h7.7v6.2a19.1 19.1 0 015.2-5 16.7 16.7 0 019.4-2.6 17.7 17.7 0 0113.6 6.1q5.6 6.1 5.6 17.5 0 15.4-8.1 22a18.3 18.3 0 01-11.9 4.2 16.3 16.3 0 01-9-2.3 20.9 20.9 0 01-4.7-4.5v24h-7.9zm29.8 36.9q3.7-4.7 3.7-13.9a25.8 25.8 0 00-1.6-9.7q-3.1-7.8-11.3-7.8t-11.3 8.2a32.4 32.4 0 00-1.6 11.2 23.6 23.6 0 001.6 9.3q3.1 7.3 11.3 7.3a11.3 11.3 0 009.2-4.6zm27-50.2h8v13.1h7.5v6.5h-7.5v30.7a3.3 3.3 0 001.7 3.3 7.1 7.1 0 003.1.5h1.2c.4 0 1-.1 1.5-.1v6.3a18.4 18.4 0 01-2.8.6 26.4 26.4 0 01-3.2.2c-3.7 0-6.2-1-7.5-2.8a12.6 12.6 0 01-2-7.4v-31.4h-6.4v-6.5h6.4zm27.9-4.4h8v9h-8zm0 17.7h8v46.9h-8zm55.6 2.3q5 3.9 6 13.3h-7.7a14.2 14.2 0 00-3.2-7.2q-2.5-2.9-8-2.9-7.6 0-10.8 7.4a29.2 29.2 0 00-2.1 11.8 22.2 22.2 0 003 11.9q3 4.8 9.4 4.8a10.3 10.3 0 007.8-3 16.5 16.5 0 004-8.2h7.7q-1.3 9.4-6.6 13.7t-13.5 4.3a18 18 0 01-14.7-6.7q-5.5-6.8-5.5-16.9 0-12.4 6-19.3a19.5 19.5 0 0115.3-6.9q7.9 0 12.9 3.9zm43.6 16.1a4.3 4.3 0 003.6-2.3 7 7 0 00.5-3q0-4.1-2.9-5.9t-8.2-1.8q-6.2 0-8.8 3.4a11.1 11.1 0 00-1.9 5.5h-7.4q.2-8.7 5.6-12.1a23.1 23.1 0 0112.6-3.4q8.3 0 13.5 3.2t5.1 9.8v27.1a3.5 3.5 0 00.5 2 2.4 2.4 0 002.1.8 10.6 10.6 0 001.2-.1c.4 0 .9-.1 1.4-.2v5.8a22.5 22.5 0 01-2.8.7 20.1 20.1 0 01-2.6.1q-4.1 0-5.9-2.9a11.4 11.4 0 01-1.4-4.3 20 20 0 01-6.9 5.5 21.5 21.5 0 01-10 2.3 14.8 14.8 0 01-10.7-4 13.2 13.2 0 01-4.2-9.9q0-6.5 4.1-10.1a19.4 19.4 0 0110.7-4.4zm-16.6 21.4a9.3 9.3 0 005.9 2 18.1 18.1 0 008.1-1.9 10.9 10.9 0 006.6-10.5v-6.4a13.4 13.4 0 01-3.7 1.5 30.9 30.9 0 01-4.5.9l-4.8.6a18.7 18.7 0 00-6.5 1.8 7 7 0 00-3.7 6.6 6.5 6.5 0 002.6 5.3zm46.2-57.5h7.9v64.6h-7.9zm-284.3 108h8.8v64.6h-8.8zm26.5 17.5h7.8v6.7a26.2 26.2 0 015.1-5 15.3 15.3 0 018.9-2.7 13.9 13.9 0 019 2.8 14.4 14.4 0 013.5 4.7 17.2 17.2 0 016.2-5.6 17.4 17.4 0 018-1.8q9.5 0 12.9 6.8a22.4 22.4 0 011.9 9.9v31.3h-8.2v-32.7q0-4.7-2.4-6.5a9.3 9.3 0 00-5.7-1.8 11.4 11.4 0 00-8 3.1q-3.4 3.1-3.4 10.4v27.4h-8v-30.7q0-4.8-1.1-7-1.8-3.3-6.7-3.3a11.6 11.6 0 00-8.2 3.5q-3.7 3.5-3.7 12.6v25h-7.9zm104.6 18.6a4.3 4.3 0 003.6-2.3 7 7 0 00.5-3c0-2.7-1-4.7-2.9-5.9s-4.7-1.8-8.2-1.8q-6.2 0-8.8 3.4a11 11 0 00-1.9 5.5h-7.4q.2-8.7 5.6-12.1a23 23 0 0112.6-3.4q8.3 0 13.5 3.2t5.1 9.8v27.1a3.5 3.5 0 00.5 2 2.4 2.4 0 002.1.8 10.6 10.6 0 001.2-.1c.4 0 .9-.1 1.4-.2v5.8a22.5 22.5 0 01-2.8.7 20.2 20.2 0 01-2.6.1q-4.1 0-5.9-2.9a11.3 11.3 0 01-1.4-4.3 20.1 20.1 0 01-6.9 5.5 21.6 21.6 0 01-10 2.3 14.8 14.8 0 01-10.7-4 13.2 13.2 0 01-4.2-9.9q0-6.5 4.1-10.1a19.4 19.4 0 0110.7-4.4zm-16.7 21.4a9.3 9.3 0 005.9 2 18.1 18.1 0 008.1-1.9 10.9 10.9 0 006.6-10.5v-6.4a13.2 13.2 0 01-3.7 1.5 31.1 31.1 0 01-4.5.9l-4.8.6a18.7 18.7 0 00-6.5 1.8 7 7 0 00-3.7 6.6 6.5 6.5 0 002.7 5.3zm72.2-38.1a21.7 21.7 0 014.6 4.5v-5.9h7.3v42.8q0 9-2.6 14.2-4.9 9.6-18.5 9.6a22.7 22.7 0 01-12.8-3.4q-5.2-3.4-5.8-10.7h8a9 9 0 002.3 4.9q2.7 2.6 8.4 2.6 9 0 11.8-6.4 1.7-3.8 1.5-13.5a15.6 15.6 0 01-5.7 5.4 20.3 20.3 0 01-22.1-3.7q-5.7-5.4-5.7-18 0-11.8 5.8-18.5a17.8 17.8 0 0113.9-6.6 17.1 17.1 0 019.6 2.7zm1 8.5a11.5 11.5 0 00-9.1-4.2q-8.3 0-11.4 7.8a30.8 30.8 0 00-1.6 10.9q0 8 3.2 12.1a10.3 10.3 0 008.6 4.2q8.5 0 11.9-7.7a24.9 24.9 0 001.9-10.2q.1-8.7-3.5-12.9zm27.4-27.9h8v9h-8zm0 17.7h8v46.9h-8zm24.5-.2h7.5v6.7a21.1 21.1 0 017.1-5.9 18.9 18.9 0 018.3-1.8q10 0 13.5 7 1.9 3.8 1.9 10.9v30.2h-8v-29.7a16.1 16.1 0 00-1.3-7q-2.1-4.4-7.6-4.4a15.6 15.6 0 00-4.6.6 11.8 11.8 0 00-5.7 3.9 11.5 11.5 0 00-2.6 4.8 32.1 32.1 0 00-.6 7.1v24.6h-7.9zm80.8 1.9a21.9 21.9 0 014.5 4.5v-5.9h7.3v42.8q0 9-2.6 14.2-4.9 9.6-18.5 9.6a22.7 22.7 0 01-12.8-3.4q-5.2-3.4-5.8-10.7h8a9 9 0 002.3 4.9q2.7 2.6 8.4 2.6 9 0 11.8-6.4 1.7-3.8 1.5-13.5a15.5 15.5 0 01-5.7 5.4 20.3 20.3 0 01-22.1-3.7q-5.7-5.4-5.7-18 0-11.8 5.8-18.5a17.8 17.8 0 0113.9-6.6 17.1 17.1 0 019.7 2.7zm1 8.5a11.4 11.4 0 00-9.1-4.2q-8.3 0-11.4 7.8a30.8 30.8 0 00-1.6 10.9q0 8 3.2 12.1a10.4 10.4 0 008.6 4.2q8.5 0 11.9-7.7a24.8 24.8 0 001.9-10.2q0-8.7-3.6-12.9zm-323.3 80.1h8.8v56.9h32.4v7.7h-41.2zm78.7 36.1a4.3 4.3 0 003.6-2.3 6.8 6.8 0 00.5-3c0-2.7-1-4.7-2.9-5.9s-4.7-1.8-8.2-1.8q-6.2 0-8.8 3.4a11.1 11.1 0 00-1.9 5.5h-7.4q.2-8.7 5.6-12.1a23 23 0 0112.6-3.4q8.3 0 13.5 3.2t5.1 9.8v27.1a3.4 3.4 0 00.5 2q.5.8 2.1.8a10.3 10.3 0 001.2-.1c.4 0 .9-.1 1.4-.2v5.8a22.9 22.9 0 01-2.8.7 20.3 20.3 0 01-2.6.1q-4.1 0-5.9-2.9a11.1 11.1 0 01-1.4-4.3 20.1 20.1 0 01-7 5.5 21.5 21.5 0 01-10 2.3 14.8 14.8 0 01-10.7-4 13.2 13.2 0 01-4.2-9.9q0-6.5 4.1-10.1a19.4 19.4 0 0110.7-4.4zm-16.7 21.4a9.3 9.3 0 005.9 2 18.2 18.2 0 008.1-1.9 10.9 10.9 0 006.6-10.5v-6.4a13.3 13.3 0 01-3.7 1.5 30.9 30.9 0 01-4.5.9l-4.8.6a18.4 18.4 0 00-6.5 1.8 7 7 0 00-3.7 6.6 6.5 6.5 0 002.7 5.3zm45.4-57.7h7.7v23.4a17.3 17.3 0 0114.1-7 18.5 18.5 0 0114.3 6q5.5 6 5.5 17.8 0 11.2-5.4 18.5t-15 7.4a15.4 15.4 0 01-9.1-2.6 22.2 22.2 0 01-4.7-4.9v6h-7.3zm30.2 54.2q3.2-5.1 3.2-13.4 0-7.4-3.2-12.3a10.5 10.5 0 00-9.4-4.9 13.1 13.1 0 00-9.5 4q-4.1 4-4.1 13.2a29.3 29.3 0 001.7 10.8q3.1 7.8 11.7 7.8a10.6 10.6 0 009.6-5.2zm59.1-31.8q6.2 6.1 6.2 17.8 0 11.4-5.5 18.8t-17.1 7.4q-9.6 0-15.3-6.6t-5.7-17.6q0-11.9 6-18.9t16.1-7a21.1 21.1 0 0115.3 6.1zm-4.9 31.3a29.8 29.8 0 002.9-13.2 23.8 23.8 0 00-2.1-10.7q-3.3-6.5-11.4-6.5-7.2 0-10.4 5.5a25.9 25.9 0 00-3.3 13.3 22.5 22.5 0 003.3 12.5q3.3 5 10.3 5 7.8 0 10.7-5.9zm25.6-36h7.5v8.1c.6-1.6 2.1-3.5 4.5-5.8a11.8 11.8 0 018.3-3.4h.8l1.8.2v8.3a11.5 11.5 0 00-1.3-.2h-1.3q-6 0-9.2 3.8a13.4 13.4 0 00-3.2 8.9v27.1h-7.9zm59.5 18.6a4.3 4.3 0 003.6-2.3 7 7 0 00.5-3c0-2.7-1-4.7-2.9-5.9s-4.7-1.8-8.2-1.8q-6.2 0-8.8 3.4a11 11 0 00-1.9 5.5h-7.4q.2-8.7 5.6-12.1a23 23 0 0112.6-3.4q8.3 0 13.5 3.2t5.1 9.8v27.1a3.4 3.4 0 00.5 2 2.4 2.4 0 002.1.8 10.6 10.6 0 001.2-.1c.4 0 .9-.1 1.4-.2v5.8a22.5 22.5 0 01-2.8.7 20.2 20.2 0 01-2.6.1q-4.1 0-5.9-2.9a11.3 11.3 0 01-1.4-4.3 20.1 20.1 0 01-6.9 5.5 21.6 21.6 0 01-10 2.3 14.8 14.8 0 01-10.7-4 13.2 13.2 0 01-4.2-9.9q0-6.5 4.1-10.1a19.4 19.4 0 0110.7-4.4zm-16.7 21.4a9.3 9.3 0 005.9 2 18.1 18.1 0 008.1-1.9 10.9 10.9 0 006.6-10.5v-6.4a13.2 13.2 0 01-3.7 1.5 31.1 31.1 0 01-4.5.9l-4.8.6a18.4 18.4 0 00-6.5 1.8 7 7 0 00-3.7 6.6 6.5 6.5 0 002.6 5.3zm47.6-53.1h8v13.1h7.5v6.5h-7.5v30.7a3.3 3.3 0 001.7 3.3 7.1 7.1 0 003.1.5h1.2c.4 0 1-.1 1.5-.1v6.3a18.4 18.4 0 01-2.8.6 26.4 26.4 0 01-3.2.2q-5.5 0-7.5-2.8a12.6 12.6 0 01-2-7.4v-31.3h-6.4v-6.5h6.4zm62 17.8q6.2 6.1 6.2 17.8 0 11.4-5.5 18.8t-17.1 7.4q-9.6 0-15.3-6.6t-5.7-17.6q0-11.9 6-18.9t16.1-7a21.1 21.1 0 0115.3 6.1zm-4.9 31.3a29.8 29.8 0 002.9-13.2 23.8 23.8 0 00-2.1-10.7q-3.3-6.5-11.4-6.5-7.2 0-10.4 5.5a25.9 25.9 0 00-3.3 13.3 22.5 22.5 0 003.3 12.5c2.2 3.3 5.6 5 10.3 5q7.8 0 10.7-5.9zm25.6-36h7.5v8.1c.6-1.6 2.1-3.5 4.5-5.8a11.7 11.7 0 018.3-3.4h.8l1.8.2v8.3a11.5 11.5 0 00-1.3-.2h-1.3q-6 0-9.2 3.8a13.5 13.5 0 00-3.2 8.9v27.1h-7.9zm63.6 0h8.7q-1.7 4.5-7.4 20.7-4.3 12.1-7.2 19.8-6.8 18-9.7 22t-9.7 4a18.7 18.7 0 01-2.6-.1 21.3 21.3 0 01-2.2-.5v-7.2a27.1 27.1 0 003 .7 11.2 11.2 0 001.6.1 5.7 5.7 0 003.2-.7 6.7 6.7 0 001.7-1.8c.1-.2.7-1.4 1.6-3.6s1.6-3.8 2-4.8l-17.4-48.5h9l12.6 38.3zM1266 97.4v31.3a13.5 13.5 0 001.1 5.9q2 4.2 7.7 4.2 8 0 11-7.4 1.6-4 1.6-10.8V97.4h7.9v47.1h-7.5l.1-6.9a15.8 15.8 0 01-3.8 4.5 16.3 16.3 0 01-10.8 3.7q-9.9 0-13.4-6.7c-1.3-2.4-1.9-5.6-1.9-9.6v-32z" />
</svg>